<svg width="71" height="71" viewBox="0 0 71 71" fill="none" xmlns="http://www.w3.org/2000/svg">
<mask id="path-1-outside-1_707_17" maskUnits="userSpaceOnUse" x="-0.539062" y="3.96875" width="71" height="67" fill="black">
<rect fill="white" x="-0.539062" y="3.96875" width="71" height="67"/>
<path fill-rule="evenodd" clip-rule="evenodd" d="M39.32 33.277C39.2296 33.1983 39.1414 33.0994 39.0555 32.9805C38.8211 32.6094 38.6161 32.3262 38.4403 32.1309C36.7996 30.4902 35.3836 30.1582 34.1922 31.1348C33.9578 31.291 33.9188 31.5059 34.075 31.7793C34.8953 33.0488 35.5789 34.2598 36.1258 35.4121C37.2977 37.9707 37.7078 40.5488 37.3563 43.1465C37.0243 45.7441 36.1453 48.0781 34.7196 50.1484C33.2938 52.2188 31.4383 53.9082 29.1532 55.2168C26.8875 56.5449 24.4071 57.209 21.7118 57.209C18.2547 57.209 15.2762 56.3887 12.7762 54.748C10.2762 53.127 8.91878 50.793 8.70394 47.7461L9.23128 45.3438C9.40707 44.543 9.62191 43.752 9.87582 42.9707C10.5789 40.959 10.4911 39.6016 9.61214 38.8984C9.12386 38.5078 8.56722 38.3125 7.94222 38.3125C7.35628 38.293 7.06332 38.0586 7.06332 37.6094C7.06332 37.1406 7.35628 36.8965 7.94222 36.877C8.4305 36.877 8.95785 36.9355 9.52425 37.0527C10.0907 37.1699 10.618 37.2676 11.1063 37.3457C13.1961 37.7949 14.8172 38.6445 15.9696 39.8945C17.1219 41.125 17.2977 43.1465 16.4969 45.959C15.7352 48.5566 15.6278 50.7539 16.1746 52.5508C16.7411 54.3477 18.5477 55.334 21.5946 55.5098C24.2703 55.627 26.3504 54.875 27.8348 53.2539C29.3192 51.6328 30.2567 49.5039 30.6473 46.8672C30.9207 45.0312 30.5203 42.9805 29.4461 40.7148C28.3719 38.4492 26.9364 36.1738 25.1395 33.8887C21.0575 28.7324 19.4461 25.0703 20.3055 22.9023C21.1649 20.7148 23.0594 18.3223 25.9891 15.7246V15.6953C26.0868 15.5977 26.243 15.5488 26.4578 15.5488C26.9461 15.5488 27.1903 15.7832 27.1903 16.252C27.1903 16.4473 27.1024 16.6328 26.9266 16.8086C25.2664 18.5664 25.1786 20.334 26.6629 22.1113C27.7176 23.4004 28.7528 24.6797 29.7684 25.9492C30.8036 27.1992 31.7606 28.4395 32.6395 29.6699C32.8934 29.9824 33.1571 29.9922 33.4305 29.6992C34.2508 28.6641 35.0809 27.6387 35.9207 26.623C36.7606 25.5879 37.6102 24.543 38.4696 23.4883C38.8211 23.0586 39.202 23.0098 39.6121 23.3418C40.3153 23.9277 40.9989 24.5234 41.6629 25.1289C42.235 25.6193 42.8139 26.1096 43.3997 26.6H67.52V38.48H52.52V42.98H66.02V54.62H52.52V68H39.32V33.277ZM9.14339 33.2148C12.8348 34.7578 16.6239 34.6602 20.5106 32.9219C20.8036 32.8047 20.9891 32.6484 21.0672 32.4531C21.1649 32.2383 21.1649 32.0527 21.0672 31.8965C20.9891 31.7207 20.8328 31.6035 20.5985 31.5449C20.3641 31.4668 20.0711 31.4961 19.7196 31.6328C15.4227 33.3125 11.8973 33.2441 9.14339 31.4277C6.38949 29.6113 4.95394 27.0723 4.83675 23.8105C4.7391 20.5293 5.86214 17.834 8.20589 15.7246C10.5692 13.6152 13.6063 12.5605 17.3172 12.5605C20.4813 12.5605 23.6063 13.2637 26.6922 14.6699C29.7977 16.0762 32.2293 17.4238 33.9871 18.7129C34.5731 19.084 35.1102 19.0742 35.5985 18.6836C36.9657 17.6289 38.3621 16.6133 39.7879 15.6367C41.2137 14.6406 42.6297 13.6348 44.036 12.6191C44.5047 12.248 44.6805 11.9062 44.5633 11.5938C44.4657 11.2812 44.202 11.1641 43.7723 11.2422C43.577 11.3008 43.284 11.4082 42.8934 11.5645C41.077 12.1895 39.2215 12.0039 37.327 11.0078C34.4559 9.48438 31.6141 8.26367 28.8016 7.3457C25.9891 6.42773 23.1961 5.96875 20.4227 5.96875C14.5243 5.96875 9.92464 7.87305 6.62386 11.6816C3.32308 15.4902 1.98519 19.6406 2.61019 24.1328C3.23519 28.625 5.41293 31.6523 9.14339 33.2148Z"/>
</mask>
<path fill-rule="evenodd" clip-rule="evenodd" d="M39.32 33.277C39.2296 33.1983 39.1414 33.0994 39.0555 32.9805C38.8211 32.6094 38.6161 32.3262 38.4403 32.1309C36.7996 30.4902 35.3836 30.1582 34.1922 31.1348C33.9578 31.291 33.9188 31.5059 34.075 31.7793C34.8953 33.0488 35.5789 34.2598 36.1258 35.4121C37.2977 37.9707 37.7078 40.5488 37.3563 43.1465C37.0243 45.7441 36.1453 48.0781 34.7196 50.1484C33.2938 52.2188 31.4383 53.9082 29.1532 55.2168C26.8875 56.5449 24.4071 57.209 21.7118 57.209C18.2547 57.209 15.2762 56.3887 12.7762 54.748C10.2762 53.127 8.91878 50.793 8.70394 47.7461L9.23128 45.3438C9.40707 44.543 9.62191 43.752 9.87582 42.9707C10.5789 40.959 10.4911 39.6016 9.61214 38.8984C9.12386 38.5078 8.56722 38.3125 7.94222 38.3125C7.35628 38.293 7.06332 38.0586 7.06332 37.6094C7.06332 37.1406 7.35628 36.8965 7.94222 36.877C8.4305 36.877 8.95785 36.9355 9.52425 37.0527C10.0907 37.1699 10.618 37.2676 11.1063 37.3457C13.1961 37.7949 14.8172 38.6445 15.9696 39.8945C17.1219 41.125 17.2977 43.1465 16.4969 45.959C15.7352 48.5566 15.6278 50.7539 16.1746 52.5508C16.7411 54.3477 18.5477 55.334 21.5946 55.5098C24.2703 55.627 26.3504 54.875 27.8348 53.2539C29.3192 51.6328 30.2567 49.5039 30.6473 46.8672C30.9207 45.0312 30.5203 42.9805 29.4461 40.7148C28.3719 38.4492 26.9364 36.1738 25.1395 33.8887C21.0575 28.7324 19.4461 25.0703 20.3055 22.9023C21.1649 20.7148 23.0594 18.3223 25.9891 15.7246V15.6953C26.0868 15.5977 26.243 15.5488 26.4578 15.5488C26.9461 15.5488 27.1903 15.7832 27.1903 16.252C27.1903 16.4473 27.1024 16.6328 26.9266 16.8086C25.2664 18.5664 25.1786 20.334 26.6629 22.1113C27.7176 23.4004 28.7528 24.6797 29.7684 25.9492C30.8036 27.1992 31.7606 28.4395 32.6395 29.6699C32.8934 29.9824 33.1571 29.9922 33.4305 29.6992C34.2508 28.6641 35.0809 27.6387 35.9207 26.623C36.7606 25.5879 37.6102 24.543 38.4696 23.4883C38.8211 23.0586 39.202 23.0098 39.6121 23.3418C40.3153 23.9277 40.9989 24.5234 41.6629 25.1289C42.235 25.6193 42.8139 26.1096 43.3997 26.6H67.52V38.48H52.52V42.98H66.02V54.62H52.52V68H39.32V33.277ZM9.14339 33.2148C12.8348 34.7578 16.6239 34.6602 20.5106 32.9219C20.8036 32.8047 20.9891 32.6484 21.0672 32.4531C21.1649 32.2383 21.1649 32.0527 21.0672 31.8965C20.9891 31.7207 20.8328 31.6035 20.5985 31.5449C20.3641 31.4668 20.0711 31.4961 19.7196 31.6328C15.4227 33.3125 11.8973 33.2441 9.14339 31.4277C6.38949 29.6113 4.95394 27.0723 4.83675 23.8105C4.7391 20.5293 5.86214 17.834 8.20589 15.7246C10.5692 13.6152 13.6063 12.5605 17.3172 12.5605C20.4813 12.5605 23.6063 13.2637 26.6922 14.6699C29.7977 16.0762 32.2293 17.4238 33.9871 18.7129C34.5731 19.084 35.1102 19.0742 35.5985 18.6836C36.9657 17.6289 38.3621 16.6133 39.7879 15.6367C41.2137 14.6406 42.6297 13.6348 44.036 12.6191C44.5047 12.248 44.6805 11.9062 44.5633 11.5938C44.4657 11.2812 44.202 11.1641 43.7723 11.2422C43.577 11.3008 43.284 11.4082 42.8934 11.5645C41.077 12.1895 39.2215 12.0039 37.327 11.0078C34.4559 9.48438 31.6141 8.26367 28.8016 7.3457C25.9891 6.42773 23.1961 5.96875 20.4227 5.96875C14.5243 5.96875 9.92464 7.87305 6.62386 11.6816C3.32308 15.4902 1.98519 19.6406 2.61019 24.1328C3.23519 28.625 5.41293 31.6523 9.14339 33.2148Z" fill="#60FF8D"/>
<path d="M39.32 33.277H41.32V32.3665L40.6333 31.7686L39.32 33.277ZM39.0555 32.9805L37.3645 34.0485L37.3977 34.101L37.4342 34.1515L39.0555 32.9805ZM38.4403 32.1309L39.9269 30.7929L39.8917 30.7538L39.8545 30.7166L38.4403 32.1309ZM34.1922 31.1348L35.3016 32.7989L35.3837 32.7441L35.4601 32.6815L34.1922 31.1348ZM34.075 31.7793L32.3385 32.7716L32.3656 32.8189L32.3952 32.8647L34.075 31.7793ZM36.1258 35.4121L37.9442 34.5793L37.9385 34.5669L37.9327 34.5546L36.1258 35.4121ZM37.3563 43.1465L35.3744 42.8783L35.3734 42.8856L35.3724 42.8929L37.3563 43.1465ZM29.1532 55.2168L28.1593 53.4812L28.1505 53.4863L28.1417 53.4914L29.1532 55.2168ZM12.7762 54.748L13.8735 53.0759L13.8643 53.07L12.7762 54.748ZM8.70394 47.7461L6.75045 47.3173L6.68861 47.599L6.70889 47.8868L8.70394 47.7461ZM9.87582 42.9707L7.98781 42.3108L7.98055 42.3316L7.97375 42.3525L9.87582 42.9707ZM7.94222 38.3125L7.87559 40.3114L7.9089 40.3125H7.94222V38.3125ZM7.94222 36.877V34.877H7.9089L7.87559 34.8781L7.94222 36.877ZM11.1063 37.3457L11.5266 35.3904L11.4747 35.3792L11.4223 35.3708L11.1063 37.3457ZM15.9696 39.8945L14.4991 41.2501L14.5044 41.2559L14.5098 41.2616L15.9696 39.8945ZM16.4969 45.959L18.4161 46.5218L18.4183 46.5142L18.4205 46.5067L16.4969 45.959ZM16.1746 52.5508L14.2613 53.1331L14.2642 53.1426L14.2672 53.1521L16.1746 52.5508ZM21.5946 55.5098L21.4794 57.5064L21.4932 57.5072L21.5071 57.5079L21.5946 55.5098ZM30.6473 46.8672L28.6691 46.5726L28.6689 46.5741L30.6473 46.8672ZM25.1395 33.8887L26.7117 32.6524L26.7076 32.6473L25.1395 33.8887ZM20.3055 22.9023L22.1648 23.6393L22.167 23.6336L20.3055 22.9023ZM25.9891 15.7246L27.316 17.2211L27.9891 16.6242V15.7246H25.9891ZM25.9891 15.6953L24.5749 14.2811L23.9891 14.8669V15.6953H25.9891ZM26.9266 16.8086L25.5124 15.3944L25.4922 15.4146L25.4726 15.4353L26.9266 16.8086ZM26.6629 22.1113L28.2108 20.8449L28.2045 20.837L28.198 20.8293L26.6629 22.1113ZM29.7684 25.9492L28.2067 27.1986L28.2172 27.2118L28.228 27.2248L29.7684 25.9492ZM32.6395 29.6699L31.012 30.8324L31.0481 30.8829L31.0873 30.9311L32.6395 29.6699ZM33.4305 29.6992L34.8926 31.0639L34.9478 31.0047L34.998 30.9414L33.4305 29.6992ZM35.9207 26.623L37.462 27.8976L37.468 27.8904L37.4739 27.8831L35.9207 26.623ZM38.4696 23.4883L36.9216 22.2218L36.9191 22.2249L38.4696 23.4883ZM39.6121 23.3418L40.8925 21.8054L40.8816 21.7963L40.8705 21.7873L39.6121 23.3418ZM41.6629 25.1289L40.3154 26.6068L40.3381 26.6275L40.3613 26.6474L41.6629 25.1289ZM43.3997 26.6L42.1159 28.1336L42.6731 28.6H43.3997V26.6ZM67.52 26.6H69.52V24.6H67.52V26.6ZM67.52 38.48V40.48H69.52V38.48H67.52ZM52.52 38.48V36.48H50.52V38.48H52.52ZM52.52 42.98H50.52V44.98H52.52V42.98ZM66.02 42.98H68.02V40.98H66.02V42.98ZM66.02 54.62V56.62H68.02V54.62H66.02ZM52.52 54.62V52.62H50.52V54.62H52.52ZM52.52 68V70H54.52V68H52.52ZM39.32 68H37.32V70H39.32V68ZM20.5106 32.9219L19.7678 31.0649L19.7306 31.0798L19.6941 31.0961L20.5106 32.9219ZM9.14339 33.2148L8.37074 35.0596L8.37208 35.0601L9.14339 33.2148ZM21.0672 32.4531L19.2465 31.6255L19.2274 31.6675L19.2103 31.7103L21.0672 32.4531ZM21.0672 31.8965L19.2396 32.7088L19.2967 32.8372L19.3712 32.9565L21.0672 31.8965ZM20.5985 31.5449L19.966 33.4423L20.0389 33.4666L20.1134 33.4852L20.5985 31.5449ZM19.7196 31.6328L18.9947 29.7688L18.9914 29.7701L19.7196 31.6328ZM4.83675 23.8105L2.8376 23.87L2.83804 23.8824L4.83675 23.8105ZM8.20589 15.7246L6.8741 14.2325L6.86796 14.238L8.20589 15.7246ZM26.6922 14.6699L25.8629 16.4899L25.8672 16.4918L26.6922 14.6699ZM33.9871 18.7129L32.8044 20.3257L32.8594 20.366L32.917 20.4025L33.9871 18.7129ZM35.5985 18.6836L34.3769 17.1L34.3629 17.1108L34.3491 17.1219L35.5985 18.6836ZM39.7879 15.6367L40.9181 17.2868L40.9257 17.2815L40.9333 17.2762L39.7879 15.6367ZM44.036 12.6191L45.207 14.2405L45.2428 14.2146L45.2774 14.1872L44.036 12.6191ZM44.5633 11.5938L42.6544 12.1903L42.671 12.2437L42.6907 12.296L44.5633 11.5938ZM43.7723 11.2422L43.4145 9.27445L43.3046 9.29443L43.1976 9.32653L43.7723 11.2422ZM42.8934 11.5645L43.5441 13.4556L43.5906 13.4396L43.6362 13.4214L42.8934 11.5645ZM37.327 11.0078L36.3895 12.7745L36.3962 12.778L37.327 11.0078ZM40.6333 31.7686C40.6577 31.7899 40.6725 31.8057 40.6786 31.8126C40.6848 31.8194 40.6839 31.8192 40.6769 31.8095L37.4342 34.1515C37.5904 34.3678 37.7788 34.5869 38.0067 34.7854L40.6333 31.7686ZM40.7465 31.9125C40.486 31.5001 40.2117 31.1094 39.9269 30.7929L36.9537 33.4688C37.0204 33.543 37.1562 33.7187 37.3645 34.0485L40.7465 31.9125ZM39.8545 30.7166C38.9133 29.7755 37.8308 28.9918 36.6044 28.7042C35.2501 28.3866 33.9682 28.7324 32.9244 29.588L35.4601 32.6815C35.5124 32.6387 35.5503 32.6157 35.573 32.6039C35.5949 32.5925 35.6059 32.5897 35.6078 32.5893C35.6094 32.5889 35.6122 32.5882 35.6201 32.5882C35.6287 32.5882 35.6514 32.5892 35.6912 32.5986C35.8807 32.643 36.3266 32.8456 37.0261 33.5451L39.8545 30.7166ZM33.0828 29.4707C32.6517 29.7581 32.1621 30.2707 32.0194 31.0553C31.8852 31.7932 32.128 32.403 32.3385 32.7716L35.8115 30.787C35.8659 30.8821 36.05 31.2478 35.9549 31.7709C35.8513 32.3406 35.4983 32.6677 35.3016 32.7989L33.0828 29.4707ZM32.3952 32.8647C33.1766 34.0741 33.8155 35.2087 34.319 36.2696L37.9327 34.5546C37.3424 33.3108 36.6141 32.0236 35.7549 30.6939L32.3952 32.8647ZM34.3075 36.2449C35.3338 38.4858 35.6714 40.6835 35.3744 42.8783L39.3382 43.4147C39.7443 40.4142 39.2616 37.4556 37.9442 34.5793L34.3075 36.2449ZM35.3724 42.8929C35.0791 45.188 34.3097 47.2174 33.0724 49.0141L36.3667 51.2828C37.981 48.9388 38.9694 46.3003 39.3401 43.4001L35.3724 42.8929ZM33.0724 49.0141C31.8247 50.8258 30.1971 52.3143 28.1593 53.4812L30.147 56.9524C32.6796 55.5021 34.7629 53.6117 36.3667 51.2828L33.0724 49.0141ZM28.1417 53.4914C26.1912 54.6348 24.0613 55.209 21.7118 55.209V59.209C24.7528 59.209 27.5839 58.455 30.1646 56.9422L28.1417 53.4914ZM21.7118 55.209C18.5823 55.209 15.999 54.4708 13.8735 53.076L11.6789 56.4201C14.5534 58.3065 17.9272 59.209 21.7118 59.209V55.209ZM13.8643 53.07C11.9066 51.8005 10.871 50.0444 10.699 47.6054L6.70889 47.8868C6.96661 51.5416 8.6458 54.4534 11.6881 56.4261L13.8643 53.07ZM10.6574 48.1749L11.1848 45.7726L7.2778 44.9149L6.75045 47.3173L10.6574 48.1749ZM11.1848 45.7726C11.3465 45.0358 11.5442 44.308 11.7779 43.5889L7.97375 42.3525C7.69965 43.1959 7.46764 44.0501 7.2778 44.9149L11.1848 45.7726ZM11.7638 43.6306C12.1592 42.4994 12.4013 41.3692 12.3331 40.3146C12.261 39.2016 11.8305 38.1118 10.8615 37.3367L8.36275 40.4602C8.27274 40.3882 8.3256 40.3287 8.34142 40.5731C8.36103 40.8759 8.29557 41.4303 7.98781 42.3108L11.7638 43.6306ZM10.8615 37.3367C10.0188 36.6625 9.02161 36.3125 7.94222 36.3125V40.3125C8.11284 40.3125 8.22891 40.3531 8.36275 40.4602L10.8615 37.3367ZM8.00885 36.3136C7.9203 36.3107 8.20002 36.2944 8.53243 36.5603C8.71378 36.7054 8.86232 36.8983 8.95654 37.1182C9.04637 37.3278 9.06332 37.5059 9.06332 37.6094H5.06332C5.06332 38.3082 5.31758 39.111 6.03365 39.6838C6.65904 40.1841 7.37821 40.2948 7.87559 40.3114L8.00885 36.3136ZM9.06332 37.6094C9.06332 37.698 9.04957 37.862 8.96813 38.0602C8.88231 38.269 8.74311 38.4614 8.56341 38.6111C8.22759 38.891 7.93472 38.8783 8.00885 38.8758L7.87559 34.8781C7.36379 34.8951 6.63147 35.0143 6.00267 35.5383C5.297 36.1263 5.06332 36.9303 5.06332 37.6094H9.06332ZM7.94222 38.877C8.27217 38.877 8.66228 38.9168 9.11904 39.0113L9.92946 35.0942C9.25341 34.9543 8.58884 34.877 7.94222 34.877V38.877ZM9.11904 39.0113C9.71025 39.1336 10.2677 39.237 10.7903 39.3206L11.4223 35.3708C10.9683 35.2982 10.4711 35.2063 9.92946 35.0942L9.11904 39.0113ZM10.686 39.301C12.4767 39.686 13.6911 40.3737 14.4991 41.2501L17.4401 38.5389C15.9433 36.9153 13.9155 35.9039 11.5266 35.3904L10.686 39.301ZM14.5098 41.2616C14.9093 41.6883 15.3248 42.7721 14.5734 45.4113L18.4205 46.5067C19.2706 43.5209 19.3345 40.5617 17.4294 38.5274L14.5098 41.2616ZM14.5777 45.3962C13.7523 48.211 13.5612 50.8326 14.2613 53.1331L18.088 51.9685C17.6944 50.6752 17.718 48.9023 18.4161 46.5218L14.5777 45.3962ZM14.2672 53.1521C15.2217 56.1804 18.1856 57.3164 21.4794 57.5064L21.7098 53.5131C18.9098 53.3516 18.2604 52.5149 18.0821 51.9495L14.2672 53.1521ZM21.5071 57.5079C24.6322 57.6447 27.3392 56.7567 29.3098 54.6046L26.3598 51.9033C25.3616 52.9933 23.9085 53.6092 21.6821 53.5117L21.5071 57.5079ZM29.3098 54.6046C31.1165 52.6315 32.1892 50.1068 32.6257 47.1603L28.6689 46.5741C28.3242 48.901 27.5218 50.6342 26.3598 51.9033L29.3098 54.6046ZM32.6255 47.1618C32.9746 44.8179 32.4392 42.3593 31.2533 39.858L27.639 41.5717C28.6015 43.6017 28.8669 45.2446 28.6691 46.5726L32.6255 47.1618ZM31.2533 39.858C30.106 37.4382 28.5865 35.0368 26.7117 32.6524L23.5673 35.1249C25.2862 37.3109 26.6379 39.4602 27.639 41.5717L31.2533 39.858ZM26.7076 32.6473C24.7138 30.1289 23.4075 28.0771 22.7001 26.4694C21.9657 24.8003 22.0335 23.9705 22.1648 23.6393L18.4462 22.1653C17.7181 24.0022 18.1619 26.0874 19.0388 28.0804C19.9428 30.1348 21.4831 32.4922 23.5714 35.1301L26.7076 32.6473ZM22.167 23.6336C22.8585 21.8735 24.4842 19.7319 27.316 17.2211L24.6622 14.2281C21.6346 16.9126 19.4713 19.5562 18.444 22.171L22.167 23.6336ZM27.9891 15.7246V15.6953H23.9891V15.7246H27.9891ZM27.4033 17.1095C26.9627 17.5501 26.4865 17.5488 26.4578 17.5488V13.5488C25.9995 13.5488 25.2108 13.6452 24.5749 14.2811L27.4033 17.1095ZM26.4578 17.5488C26.4137 17.5488 26.0096 17.5394 25.6221 17.1674C25.2193 16.7807 25.1903 16.3471 25.1903 16.252H29.1903C29.1903 15.688 29.0391 14.9029 28.3922 14.2818C27.7605 13.6754 26.9903 13.5488 26.4578 13.5488V17.5488ZM25.1903 16.252C25.1903 16.0383 25.2407 15.8422 25.3169 15.6814C25.3893 15.5286 25.4713 15.4355 25.5124 15.3944L28.3408 18.2228C28.7842 17.7794 29.1903 17.1124 29.1903 16.252H25.1903ZM25.4726 15.4353C24.4353 16.5336 23.6931 17.8443 23.618 19.3533C23.5422 20.8786 24.1655 22.2411 25.1279 23.3934L28.198 20.8293C27.676 20.2042 27.601 19.7943 27.6131 19.552C27.626 19.2934 27.7577 18.8414 28.3806 18.1818L25.4726 15.4353ZM25.115 23.3778C26.1652 24.6613 27.1957 25.9349 28.2067 27.1986L31.3301 24.6998C30.3098 23.4244 29.2701 22.1394 28.2108 20.8449L25.115 23.3778ZM28.228 27.2248C29.235 28.4408 30.1627 29.6434 31.012 30.8324L34.267 28.5074C33.3585 27.2355 32.3721 25.9576 31.3088 24.6736L28.228 27.2248ZM31.0873 30.9311C31.3861 31.2988 31.9993 31.8749 32.9536 31.9103C33.9115 31.9457 34.5667 31.4131 34.8926 31.0639L31.9684 28.3346C32.0209 28.2783 32.4076 27.8873 33.1017 27.913C33.7923 27.9386 34.1468 28.3535 34.1917 28.4087L31.0873 30.9311ZM34.998 30.9414C35.8097 29.9171 36.6311 28.9025 37.462 27.8976L34.3794 25.3485C33.5307 26.3749 32.6919 27.411 31.863 28.4571L34.998 30.9414ZM37.4739 27.8831C38.3128 26.8491 39.1615 25.8052 40.02 24.7516L36.9191 22.2249C36.0589 23.2807 35.2084 24.3267 34.3676 25.363L37.4739 27.8831ZM40.0175 24.7548C40.0131 24.7602 39.777 25.0486 39.2732 25.1132C38.7437 25.181 38.4096 24.9415 38.3537 24.8963L40.8705 21.7873C40.4045 21.41 39.6749 21.0289 38.7646 21.1456C37.8799 21.2591 37.2776 21.7867 36.9217 22.2218L40.0175 24.7548ZM38.3318 24.8782C39.0125 25.4455 39.6737 26.0217 40.3154 26.6068L43.0104 23.651C42.324 23.0252 41.618 22.41 40.8925 21.8054L38.3318 24.8782ZM40.3613 26.6474C40.9394 27.1429 41.5243 27.6383 42.1159 28.1336L44.6835 25.0664C44.1036 24.581 43.5306 24.0956 42.9645 23.6104L40.3613 26.6474ZM43.3997 28.6H67.52V24.6H43.3997V28.6ZM65.52 26.6V38.48H69.52V26.6H65.52ZM67.52 36.48H52.52V40.48H67.52V36.48ZM50.52 38.48V42.98H54.52V38.48H50.52ZM52.52 44.98H66.02V40.98H52.52V44.98ZM64.02 42.98V54.62H68.02V42.98H64.02ZM66.02 52.62H52.52V56.62H66.02V52.62ZM50.52 54.62V68H54.52V54.62H50.52ZM52.52 66H39.32V70H52.52V66ZM41.32 68V33.277H37.32V68H41.32ZM19.6941 31.0961C16.275 32.6253 13.0613 32.6848 9.9147 31.3696L8.37208 35.0601C12.6083 36.8308 16.9727 36.695 21.3271 34.7476L19.6941 31.0961ZM19.2103 31.7103C19.3108 31.4591 19.4614 31.2879 19.5812 31.187C19.6385 31.1387 19.6869 31.1079 19.7179 31.0902C19.7489 31.0725 19.7672 31.0651 19.7678 31.0649L21.2534 34.7788C21.8015 34.5596 22.5599 34.1065 22.9242 33.1959L19.2103 31.7103ZM19.3712 32.9565C19.2199 32.7144 19.1405 32.4321 19.1405 32.1528C19.1405 31.8936 19.2082 31.7098 19.2465 31.6255L22.888 33.2807C23.1754 32.6484 23.3155 31.7201 22.7632 30.8365L19.3712 32.9565ZM20.1134 33.4852C20.0314 33.4647 19.8706 33.4112 19.6914 33.2768C19.501 33.1339 19.3413 32.9377 19.2396 32.7088L22.8948 31.0842C22.5039 30.2045 21.7472 29.7705 21.0835 29.6046L20.1134 33.4852ZM20.4445 33.4968C20.4962 33.4767 20.4779 33.4908 20.402 33.4984C20.3209 33.5065 20.1626 33.5078 19.966 33.4423L21.2309 29.6476C20.3733 29.3617 19.5621 29.5481 18.9947 29.7688L20.4445 33.4968ZM8.0422 33.0973C11.5354 35.4013 15.8055 35.3102 20.4477 33.4955L18.9914 29.7701C15.0399 31.3148 12.2592 31.087 10.2446 29.7582L8.0422 33.0973ZM2.83804 23.8824C2.97875 27.7987 4.75531 30.9293 8.0422 33.0973L10.2446 29.7582C8.02367 28.2933 6.92913 26.3458 6.83546 23.7387L2.83804 23.8824ZM6.86796 14.238C4.06719 16.7587 2.72332 20.029 2.83764 23.87L6.83587 23.751C6.75487 21.0296 7.6571 18.9093 9.54382 17.2112L6.86796 14.238ZM17.3172 10.5605C13.2044 10.5605 9.66544 11.7411 6.87411 14.2325L9.53768 17.2167C11.4729 15.4894 14.0082 14.5605 17.3172 14.5605V10.5605ZM27.5216 12.85C24.1942 11.3337 20.7876 10.5605 17.3172 10.5605V14.5605C20.175 14.5605 23.0183 15.1936 25.8629 16.4899L27.5216 12.85ZM35.1699 17.1001C33.2563 15.6968 30.6868 14.2833 27.5172 12.848L25.8672 16.4918C28.9086 17.8691 31.2023 19.1508 32.8044 20.3257L35.1699 17.1001ZM34.3491 17.1219C34.3637 17.1102 34.412 17.0748 34.4956 17.0421C34.5824 17.0083 34.6849 16.9862 34.7931 16.9842C35.015 16.9802 35.1149 17.0598 35.0572 17.0233L32.917 20.4025C33.4453 20.7371 34.1068 20.9974 34.8658 20.9836C35.6459 20.9694 36.3177 20.6694 36.8479 20.2453L34.3491 17.1219ZM38.6577 13.9867C37.2009 14.9845 35.7739 16.0223 34.3769 17.1L36.8201 20.2672C38.1574 19.2355 39.5234 18.2421 40.9181 17.2868L38.6577 13.9867ZM42.865 10.9978C41.4672 12.0073 40.0597 13.0071 38.6425 13.9972L40.9333 17.2762C42.3677 16.2742 43.7922 15.2623 45.207 14.2405L42.865 10.9978ZM42.6907 12.296C42.6164 12.0979 42.5844 11.8772 42.6042 11.6552C42.6235 11.4403 42.6865 11.2753 42.7408 11.1698C42.8356 10.9855 42.9168 10.9543 42.7946 11.051L45.2774 14.1872C45.8302 13.7496 47.0599 12.5553 46.436 10.8915L42.6907 12.296ZM44.1301 13.2099C44.1202 13.2117 44.0559 13.223 43.9509 13.217C43.8439 13.211 43.6751 13.1858 43.48 13.0991C43.2766 13.0087 43.084 12.8684 42.9282 12.6832C42.7768 12.5032 42.696 12.3236 42.6544 12.1903L46.4723 10.9972C46.2776 10.3742 45.8359 9.76889 45.1046 9.44386C44.4617 9.15814 43.8344 9.19811 43.4145 9.27445L44.1301 13.2099ZM43.6362 13.4214C44.0166 13.2692 44.2412 13.1896 44.347 13.1578L43.1976 9.32653C42.9127 9.41199 42.5514 9.54719 42.1506 9.7075L43.6362 13.4214ZM36.3962 12.778C38.7171 13.9983 41.144 14.2815 43.5441 13.4556L42.2427 9.67328C41.0099 10.0974 39.7259 10.0095 38.2577 9.23758L36.3962 12.778ZM28.181 9.24699C30.8742 10.126 33.6102 11.2997 36.3896 12.7745L38.2644 9.24111C35.3016 7.669 32.354 6.40135 29.4222 5.44441L28.181 9.24699ZM20.4227 7.96875C22.9717 7.96875 25.5555 8.39005 28.181 9.24699L29.4222 5.44441C26.4227 4.46542 23.4205 3.96875 20.4227 3.96875V7.96875ZM8.13524 12.9915C10.9901 9.69747 14.9952 7.96875 20.4227 7.96875V3.96875C14.0533 3.96875 8.85922 6.04863 5.11248 10.3718L8.13524 12.9915ZM4.59111 23.8572C4.05502 20.004 5.16528 16.4184 8.13524 12.9915L5.11248 10.3718C1.48089 14.5621 -0.0846331 19.2772 0.629272 24.4084L4.59111 23.8572ZM9.91605 31.3701C6.92683 30.1181 5.13294 27.7516 4.59111 23.8572L0.629272 24.4084C1.33745 29.4984 3.89902 33.1866 8.37074 35.0596L9.91605 31.3701Z" fill="black" mask="url(#path-1-outside-1_707_17)"/>
</svg>
